<!-- icon666.com - MILLIONS vector ICONS FREE --><svg version="1.1" id="Layer_1" xmlns="http://www.w3.org/2000/svg" xmlns:xlink="http://www.w3.org/1999/xlink" x="0px" y="0px" viewBox="0 0 490.667 490.667" style="enable-background:new 0 0 490.667 490.667;" xml:space="preserve"><g><g><g><path d="M92.415,276.715h0.001c5.504,1.984,11.648-0.917,13.632-6.464l12.715-35.584h61.162l12.714,35.584 c1.536,4.374,5.632,7.083,10.027,7.083c1.194,0,2.41-0.192,3.563-0.619c5.568-1.984,8.448-8.085,6.464-13.632L159.359,113.75 c-3.008-8.491-17.046-8.491-20.075,0L85.951,263.083C83.967,268.63,86.868,274.731,92.415,276.715z M149.333,149.056 L149.333,149.056l22.955,64.278h-45.909L149.333,149.056z"></path><path d="M394.667,277.334L394.667,277.334c5.888-0.001,10.667-4.779,10.667-10.667S400.555,256,394.667,256 c-17.643,0-32-14.357-32-32s14.357-32,32-32c5.888,0,10.667-4.779,10.667-10.667s-4.779-10.667-10.667-10.667 c-29.398,0-53.333,23.936-53.333,53.333C341.333,253.399,365.269,277.334,394.667,277.334z"></path><path d="M458.667,0H32C14.358,0,0,14.357,0,32c0,13.888,8.938,25.622,21.333,30.037v268.63c0,5.888,4.779,10.667,10.667,10.667 h202.667v87.296c-12.394,4.416-21.333,16.149-21.333,30.037c0,17.643,14.357,32,32,32s32-14.357,32-32 c0-13.888-8.938-25.622-21.334-30.037v-87.296h202.667c5.888,0,10.667-4.779,10.667-10.667V62.037 c12.394-4.416,21.333-16.149,21.333-30.037C490.667,14.357,476.309,0,458.667,0z M245.333,469.333 c-5.888,0-10.667-4.779-10.667-10.667S239.445,448,245.333,448S256,452.779,256,458.667S251.221,469.333,245.333,469.333z M448,320H42.666V64H448V320z M458.667,42.667H32c-5.888,0-10.667-4.779-10.667-10.667S26.112,21.334,32,21.334h426.667 c5.888,0,10.667,4.779,10.667,10.667S464.555,42.667,458.667,42.667z"></path><path d="M245.334,277.333L245.334,277.333l21.333,0C296.065,277.333,320,253.398,320,224s-23.936-53.333-53.333-53.333H256 v-53.334c0-5.888-4.779-10.667-10.667-10.667s-10.667,4.779-10.667,10.667v149.333 C234.667,272.555,239.446,277.333,245.334,277.333z M256,192h10.667c17.643,0,32,14.357,32,32s-14.357,32-32,32H256V192z"></path></g></g></g></svg>