<?xml version="1.0" standalone="no"?>
<!DOCTYPE svg PUBLIC "-//W3C//DTD SVG 20010904//EN"
 "http://www.w3.org/TR/2001/REC-SVG-20010904/DTD/svg10.dtd">
<svg version="1.0" xmlns="http://www.w3.org/2000/svg"
 width="1024.000000pt" height="1024.000000pt" viewBox="0 0 1024.000000 1024.000000"
 preserveAspectRatio="xMidYMid meet">

<g transform="translate(0.000000,1024.000000) scale(0.100000,-0.100000)"
fill="#000000" stroke="none">
<path d="M5900 8209 c-80 -14 -302 -91 -424 -148 -261 -122 -626 -356 -973
-623 -124 -96 -163 -134 -300 -291 -309 -354 -383 -451 -383 -499 0 -41 25
-94 52 -112 41 -27 108 -30 151 -7 22 11 36 14 34 8 -63 -152 -138 -355 -147
-398 -11 -50 -10 -60 8 -102 45 -101 177 -113 277 -25 35 30 61 71 111 171 36
73 67 133 68 134 1 2 -1 -25 -6 -60 -45 -353 -47 -398 -18 -445 43 -70 139
-93 220 -52 85 43 106 84 165 321 67 267 156 520 211 601 33 47 256 263 299
290 43 26 91 23 120 -7 14 -13 25 -33 25 -43 0 -11 -23 -52 -51 -93 -133 -194
-188 -278 -208 -318 -12 -23 -36 -107 -52 -185 -102 -488 -140 -697 -133 -748
17 -143 177 -195 290 -95 50 43 66 81 135 314 87 297 139 463 156 498 29 57
306 408 385 488 40 40 53 47 86 47 66 0 122 -61 122 -133 0 -41 -24 -78 -134
-206 -97 -112 -188 -236 -222 -303 -77 -152 -63 -344 29 -410 38 -27 113 -30
151 -4 15 9 66 67 114 128 77 99 172 213 390 471 294 347 454 785 413 1127
-25 198 -105 372 -232 499 -111 112 -223 171 -392 207 -75 15 -250 17 -337 3z"/>
<path d="M4390 5580 c-25 -6 -56 -18 -70 -28 -30 -23 -74 -99 -97 -169 -14
-45 -15 -56 -3 -77 20 -39 59 -46 262 -46 238 0 257 8 293 118 32 98 21 152
-37 187 -25 14 -58 18 -167 21 -75 2 -156 -1 -181 -6z"/>
<path d="M5645 5581 c-133 -7 -163 -19 -185 -72 -10 -23 -10 -42 0 -92 28
-144 53 -156 308 -157 265 0 289 15 241 154 -55 163 -95 181 -364 167z"/>
<path d="M3569 5560 c-47 -25 -77 -60 -195 -227 -53 -76 -120 -169 -148 -208
-179 -250 -237 -336 -242 -362 -9 -45 19 -91 69 -114 31 -14 65 -19 132 -19
157 0 191 29 341 280 164 276 184 308 211 325 16 11 58 20 112 24 130 11 164
35 211 147 33 81 31 101 -15 144 -26 25 -28 25 -233 27 -188 3 -210 1 -243
-17z"/>
<path d="M6216 5561 c-32 -22 -55 -56 -56 -84 0 -23 37 -113 63 -150 27 -40
87 -67 149 -67 76 0 119 -15 154 -52 32 -35 116 -165 228 -356 116 -196 151
-222 301 -222 67 0 101 5 132 19 44 20 73 62 73 103 0 24 -391 593 -495 721
-84 102 -98 107 -330 107 -171 0 -193 -2 -219 -19z"/>
<path d="M3876 5088 c-54 -15 -102 -67 -169 -186 -74 -130 -81 -155 -60 -199
30 -63 51 -68 298 -68 209 0 222 1 262 22 52 28 82 77 128 213 25 70 34 112
30 131 -8 35 -54 75 -103 89 -47 13 -334 11 -386 -2z"/>
<path d="M4670 5088 c-81 -23 -114 -70 -157 -216 -35 -123 -35 -158 4 -192 18
-16 49 -34 70 -39 54 -15 999 -15 1059 0 29 8 54 23 75 47 29 32 31 40 26 86
-6 57 -57 215 -82 252 -8 13 -34 34 -58 46 -42 23 -46 23 -472 25 -267 1 -443
-2 -465 -9z"/>
<path d="M5965 5085 c-42 -15 -95 -65 -95 -90 0 -30 68 -225 94 -270 17 -29
42 -53 69 -68 40 -21 53 -22 262 -22 237 0 263 5 299 57 26 37 19 65 -46 191
-72 138 -116 190 -173 206 -60 16 -361 13 -410 -4z"/>
<path d="M2798 4577 c-27 -43 -59 -119 -75 -180 -31 -121 4 -245 95 -336 58
-57 106 -84 182 -100 41 -9 576 -11 2155 -9 l2100 3 57 27 c66 31 147 106 178
167 52 103 47 233 -15 356 -54 109 -48 105 -94 53 -24 -26 -62 -55 -93 -69
l-53 -24 -2115 0 -2115 0 -57 28 c-31 15 -70 43 -86 61 -40 46 -48 49 -64 23z"/>
<path d="M6692 3460 c-57 -53 -24 -150 51 -150 37 0 87 49 87 85 0 36 -50 85
-87 85 -16 0 -39 -9 -51 -20z"/>
<path d="M4477 3463 c-4 -3 -7 -145 -7 -314 0 -295 1 -309 19 -319 25 -13 77
-13 102 0 17 10 19 22 19 126 0 148 17 185 83 184 12 0 31 -7 42 -16 18 -13
20 -29 23 -147 2 -73 8 -138 14 -144 15 -18 103 -17 118 2 8 10 11 59 8 172
-3 176 -14 209 -78 247 -40 23 -115 24 -158 2 -17 -9 -36 -16 -42 -16 -6 0
-10 38 -10 105 0 93 -2 105 -19 115 -22 11 -104 14 -114 3z"/>
<path d="M2352 3428 c-16 -16 -16 -105 1 -115 6 -4 50 -10 97 -13 l85 -5 3
-228 2 -228 26 -9 c35 -14 88 -12 102 2 9 9 12 72 12 224 0 117 3 219 6 228 5
13 22 16 84 16 90 0 103 9 103 70 0 71 3 70 -267 70 -175 0 -245 -3 -254 -12z"/>
<path d="M5089 3419 c-13 -24 -6 -83 12 -105 8 -10 35 -14 95 -14 l84 0 0
-223 c0 -204 2 -225 18 -240 23 -21 105 -23 121 -4 7 9 12 93 13 238 l3 224
95 3 c75 2 98 6 108 19 15 21 16 95 0 111 -9 9 -84 12 -275 12 -258 0 -262 0
-274 -21z"/>
<path d="M2998 3270 c-147 -44 -216 -197 -149 -328 53 -102 164 -150 274 -118
102 30 179 147 163 247 -23 141 -162 237 -288 199z m123 -159 c38 -38 39 -87
4 -129 -32 -38 -67 -47 -105 -27 -33 17 -44 34 -54 81 -6 27 -2 38 24 68 42
47 88 50 131 7z"/>
<path d="M4198 3271 c-94 -30 -148 -103 -155 -209 -4 -59 -1 -74 24 -122 18
-36 43 -65 71 -85 39 -27 51 -30 121 -30 66 0 83 4 113 24 62 43 65 58 22 102
-33 34 -40 37 -53 25 -89 -81 -202 16 -146 124 28 53 67 62 129 29 l39 -20 38
37 39 38 -23 24 c-48 52 -156 83 -219 63z"/>
<path d="M7129 3271 c-14 -5 -38 -16 -52 -26 -26 -17 -27 -17 -27 4 0 21 -4
22 -67 19 l-68 -3 -3 -209 c-2 -145 1 -213 9 -222 13 -16 76 -18 113 -4 l26
10 0 130 c0 117 2 132 20 150 11 11 33 20 50 20 17 0 39 -9 50 -20 18 -18 20
-33 20 -150 0 -145 3 -150 74 -150 68 0 66 -4 66 169 0 143 -2 161 -22 201
-13 25 -37 52 -53 62 -37 21 -101 30 -136 19z"/>
<path d="M7525 3268 c-112 -41 -170 -168 -133 -290 16 -55 79 -123 133 -143
48 -19 97 -15 148 12 16 8 30 13 32 11 11 -12 -25 -76 -54 -95 -46 -31 -86
-29 -161 9 l-63 31 -35 -37 -34 -38 32 -33 c50 -51 122 -79 205 -79 80 1 124
16 179 64 63 56 67 76 69 345 l2 240 -63 3 c-57 3 -64 1 -69 -18 l-5 -20 -33
20 c-40 25 -110 33 -150 18z m142 -143 c11 -8 26 -30 33 -49 15 -46 -7 -99
-50 -121 -29 -15 -34 -15 -68 2 -72 35 -80 141 -13 178 28 16 63 12 98 -10z"/>
<path d="M3334 3256 c-3 -8 -4 -84 -2 -168 3 -166 13 -198 68 -240 54 -40 150
-36 194 8 l25 26 31 -31 c42 -41 107 -43 163 -6 l37 26 0 -26 c0 -24 3 -25 54
-25 92 0 86 -17 86 231 l0 219 -65 0 -65 0 0 -133 c0 -154 -9 -177 -65 -177
-56 0 -65 23 -65 178 l0 133 -67 -3 -68 -3 -5 -138 c-5 -131 -6 -140 -29 -158
-28 -23 -41 -24 -67 -5 -17 13 -20 31 -24 158 l-5 143 -63 3 c-48 2 -64 0 -68
-12z"/>
<path d="M5554 3255 c-3 -8 35 -93 85 -189 50 -96 91 -185 91 -198 0 -51 -85
-128 -140 -128 -33 0 -31 -16 10 -79 35 -53 44 -61 63 -56 110 34 143 76 265
335 108 231 142 314 134 322 -5 5 -42 8 -83 6 l-74 -3 -44 -123 c-51 -143 -45
-144 -108 25 l-38 103 -78 0 c-59 0 -79 -4 -83 -15z"/>
<path d="M6117 3264 c-3 -3 -3 -20 0 -37 2 -18 8 -162 11 -322 l7 -290 59 -3
c41 -2 62 1 67 10 5 7 9 61 9 120 l0 107 43 -19 c73 -34 142 -20 212 42 58 51
79 108 73 191 -7 84 -37 140 -96 178 -43 28 -53 30 -114 27 -54 -3 -72 -8 -93
-28 l-25 -23 0 26 c0 27 -1 27 -73 27 -41 0 -76 -3 -80 -6z m293 -129 c35 -18
50 -43 50 -85 0 -86 -75 -134 -149 -95 -60 31 -54 146 10 181 32 18 54 17 89
-1z"/>
<path d="M6677 3263 c-13 -12 -8 -418 5 -431 7 -7 33 -12 58 -12 25 0 51 5 58
12 9 9 12 73 12 225 l0 213 -63 0 c-35 0 -67 -3 -70 -7z"/>
<path d="M3517 2375 c-18 -17 -22 -42 -9 -62 4 -6 32 -13 62 -15 l55 -3 3
-120 c3 -120 10 -145 41 -145 35 0 41 21 41 147 l0 122 58 3 c56 3 57 4 60 35
2 23 -2 34 -15 41 -10 4 -77 10 -149 11 -111 2 -133 0 -147 -14z"/>
<path d="M4210 2370 c-18 -18 -20 -32 -18 -121 2 -95 1 -103 -21 -120 -29 -24
-82 -24 -110 -1 -19 15 -21 29 -23 132 l-3 115 -28 3 c-51 6 -57 -9 -57 -133
0 -100 2 -116 23 -146 67 -102 229 -101 286 2 19 34 21 51 19 155 -3 111 -4
117 -26 125 -17 6 -27 4 -42 -11z"/>
<path d="M4934 2376 c-17 -8 -44 -27 -59 -42 -149 -156 33 -388 226 -289 63
33 105 128 89 200 -24 108 -155 175 -256 131z m136 -95 c39 -38 47 -75 26
-118 -32 -68 -125 -79 -169 -20 -73 97 58 224 143 138z"/>
<path d="M5822 2374 c-21 -14 -22 -22 -22 -164 0 -156 6 -180 49 -180 36 0 41
20 41 176 0 125 -3 155 -16 168 -19 20 -24 20 -52 0z"/>
<path d="M6541 2374 c-20 -14 -21 -24 -21 -169 0 -142 2 -155 19 -165 11 -5
67 -10 125 -10 106 0 136 10 136 44 0 27 -26 36 -107 36 l-83 0 0 123 c0 67
-4 127 -8 133 -13 19 -39 23 -61 8z"/>
<path d="M4400 2360 c-6 -11 -8 -30 -5 -40 5 -17 15 -20 59 -20 l53 0 6 -67
c4 -38 7 -93 7 -124 0 -62 14 -83 52 -77 23 3 23 6 26 135 l3 132 62 3 62 3 0
35 0 35 -157 3 c-150 2 -158 2 -168 -18z"/>
<path d="M5340 2361 c-5 -11 -10 -82 -10 -160 0 -154 7 -175 59 -169 23 3 27
8 31 48 5 45 5 45 46 48 40 3 43 1 78 -48 33 -46 40 -51 69 -48 43 4 46 32 9
84 l-29 40 29 34 c27 29 30 38 25 83 -3 41 -11 56 -36 79 -30 27 -34 28 -146
28 -103 0 -115 -2 -125 -19z m220 -76 c31 -38 -14 -75 -92 -75 l-48 0 0 45 0
45 64 0 c43 0 67 -5 76 -15z"/>
<path d="M6107 2263 c-90 -190 -97 -237 -35 -231 27 2 34 9 42 36 l9 32 83 0
c65 0 84 -3 84 -14 0 -8 8 -24 18 -36 14 -18 25 -22 45 -16 46 11 44 20 -78
294 -24 51 -24 52 -68 52 l-44 0 -56 -117z m143 -84 c0 -5 -21 -9 -46 -9 -52
0 -53 3 -18 86 l16 39 24 -54 c13 -29 24 -57 24 -62z"/>
</g>
</svg>
