<!-- icon666.com - MILLIONS vector ICONS FREE --><svg version="1.1" id="Capa_1" xmlns="http://www.w3.org/2000/svg" xmlns:xlink="http://www.w3.org/1999/xlink" x="0px" y="0px" viewBox="0 0 472.615 472.615" style="enable-background:new 0 0 472.615 472.615;" xml:space="preserve"><g><g><path d="M462.769,55.875H66.706C29.924,55.875,0,85.799,0,122.583c0,24.023,12.768,45.115,31.87,56.862 C12.768,191.191,0,212.284,0,236.308c0,24.023,12.768,45.115,31.87,56.862C12.768,304.916,0,326.008,0,350.032 c0,36.783,29.925,66.708,66.709,66.708h396.061c5.438,0,9.846-4.409,9.846-9.846V65.721 C472.615,60.283,468.207,55.875,462.769,55.875z M19.692,236.305c0-25.923,21.09-47.013,47.013-47.013h0.003h26.603v94.032H72.947 c-1.091,0-2.138,0.185-3.119,0.513c-0.981-0.328-2.028-0.513-3.119-0.513C40.784,283.324,19.692,262.232,19.692,236.305z M452.923,397.048H66.709c-25.925,0-47.016-21.091-47.016-47.018c0-25.923,21.09-47.013,47.013-47.013c0,0,0,0,0.001,0 s0.001,0,0.002,0c1.091,0,2.138-0.185,3.119-0.513c0.981,0.328,2.028,0.513,3.119,0.513h20.364v47.016 c0,3.736,2.113,7.149,5.458,8.814c1.389,0.691,2.891,1.032,4.388,1.032c2.103,0,4.193-0.673,5.935-1.989l62.052-46.863 l62.053,46.863c2.981,2.252,6.978,2.62,10.322,0.958c3.344-1.665,5.458-5.079,5.458-8.814v-47.016h203.947V397.048z M113.004,330.257V189.292h116.28v140.966l-52.207-39.427c-1.756-1.326-3.844-1.989-5.934-1.989c-2.089,0-4.178,0.663-5.934,1.989 L113.004,330.257z M452.923,283.324H248.976v-94.032h203.947V283.324z M452.923,169.599H239.13H103.158H66.709 c-25.925,0-47.016-21.091-47.016-47.019c0-25.923,21.09-47.013,47.013-47.013h386.217V169.599z"></path></g></g></svg>