<svg width="580" height="400" xmlns="http://www.w3.org/2000/svg">
 <!-- Created with SVG Editor - http://github.com/mzalive/SVG Editor/ -->

 <g>
  <title>background</title>
  <rect fill="#fff" id="canvas_background" height="402" width="582" y="-1" x="-1"/>
  <g display="none" overflow="visible" y="0" x="0" height="100%" width="100%" id="canvasGrid">
   <rect fill="url(#gridpattern)" stroke-width="0" y="0" x="0" height="100%" width="100%"/>
  </g>
 </g>
 <g>
  <title>Layer 1</title>
  <g stroke="null" id="svg_35">
   <path stroke="null" id="svg_5" d="m351.960077,18.82497c-6.754397,1.182019 -25.497849,7.683127 -35.798304,12.495635c-22.03622,10.300455 -52.853157,30.057067 -82.150354,52.599867c-10.469315,8.105276 -13.762084,11.313615 -25.328989,24.569119c-26.088859,29.888207 -32.336676,38.077913 -32.336676,42.130552c0,3.461628 2.110749,7.936417 4.390358,9.456156c3.461628,2.279609 9.118436,2.532899 12.748924,0.59101c1.857459,-0.92873 3.039479,-1.182019 2.870619,-0.67544c-5.319088,12.833354 -11.651335,29.972637 -12.411205,33.603125c-0.92873,4.221498 -0.8443,5.065798 0.67544,8.611856c3.799348,8.527426 14.944103,9.540586 23.3871,2.110749c2.955049,-2.532899 5.150228,-5.994527 9.371726,-14.437524c3.039479,-6.163387 5.656808,-11.229185 5.741237,-11.313615c0.08443,-0.16886 -0.08443,2.110749 -0.50658,5.065798c-3.799348,29.803777 -3.968208,33.603125 -1.519739,37.571334c3.630488,5.910097 11.735765,7.851987 18.574592,4.390358c7.176547,-3.630488 8.949576,-7.092117 13.930944,-27.102018c5.656808,-22.5428 13.171074,-43.903581 17.814722,-50.742408c2.786189,-3.968208 21.614071,-22.20508 25.244559,-24.484689c3.630488,-2.195179 7.683127,-1.941889 10.131596,0.59101c1.182019,1.09759 2.110749,2.786189 2.110749,3.630488c0,0.92873 -1.941889,4.390358 -4.305928,7.851987c-11.229185,16.379413 -15.872833,23.47153 -17.561432,26.848728c-1.01316,1.941889 -3.039479,9.034006 -4.390358,15.619543c-8.611856,41.201822 -11.820195,58.847684 -11.229185,63.153612c1.435309,12.073485 14.944103,16.463843 24.484689,8.020846c4.221498,-3.630488 5.572378,-6.838827 11.398045,-26.511008c7.345407,-25.075699 11.735765,-39.091073 13.171074,-42.046122c2.448469,-4.812508 25.835569,-34.447425 32.505536,-41.201822c3.377199,-3.377199 4.474788,-3.968208 7.260977,-3.968208c5.572378,0 10.300455,5.150228 10.300455,11.229185c0,3.461628 -2.026319,6.585537 -11.313615,17.392572c-8.189706,9.456156 -15.872833,19.925471 -18.743452,25.582279c-6.501107,12.833354 -5.319088,29.043907 2.448469,34.616285c3.208339,2.279609 9.540586,2.532899 12.748924,0.33772c1.266449,-0.75987 5.572378,-5.656808 9.625016,-10.807035c6.501107,-8.358566 14.521954,-17.983582 32.927686,-39.766513c24.822409,-29.297197 38.331203,-66.277521 34.869575,-95.152568c-2.110749,-16.717133 -8.865146,-31.407946 -19.587751,-42.130552c-9.371726,-9.456156 -18.827882,-14.437524 -33.096545,-17.477002c-6.332247,-1.266449 -21.107491,-1.435309 -28.452898,-0.25329z"/>
   <path stroke="null" id="svg_6" d="m224.470833,240.791342c-2.110749,0.50658 -4.728078,1.519739 -5.910097,2.364039c-2.532899,1.941889 -6.247817,8.358566 -8.189706,14.268664c-1.182019,3.799348 -1.266449,4.728078 -0.25329,6.501107c1.688599,3.292769 4.981368,3.883778 22.12065,3.883778c20.094331,0 21.6985,-0.67544 24.737979,-9.962736c2.701759,-8.274136 1.773029,-12.833354 -3.123909,-15.788403c-2.110749,-1.182019 -4.896938,-1.519739 -14.099804,-1.773029c-6.332247,-0.16886 -13.171074,0.08443 -15.281823,0.50658z"/>
   <path stroke="null" id="svg_7" d="m330.430437,240.706912c-11.229185,0.59101 -13.762084,1.604169 -15.619543,6.078957c-0.8443,1.941889 -0.8443,3.546058 0,7.767557c2.364039,12.157915 4.474788,13.171074 26.004429,13.255504c22.37394,0 24.400259,-1.266449 20.347621,-13.002214c-4.643648,-13.762084 -8.020846,-15.281823 -30.732507,-14.099804z"/>
   <path stroke="null" id="svg_8" d="m155.153834,242.479942c-3.968208,2.110749 -6.501107,5.065798 -16.463843,19.165602c-4.474788,6.416677 -10.131596,14.268664 -12.495635,17.561432c-15.112963,21.107491 -20.009901,28.368468 -20.432051,30.563647c-0.75987,3.799348 1.604169,7.683127 5.825667,9.625016c2.617329,1.182019 5.487948,1.604169 11.144755,1.604169c13.255504,0 16.126123,-2.448469 28.790617,-23.64039c13.846514,-23.30267 15.535113,-26.004429 17.814722,-27.439738c1.350879,-0.92873 4.896938,-1.688599 9.456156,-2.026319c10.975895,-0.92873 13.846514,-2.955049 17.814722,-12.411205c2.786189,-6.838827 2.617329,-8.527426 -1.266449,-12.157915c-2.195179,-2.110749 -2.364039,-2.110749 -19.672181,-2.279609c-15.872833,-0.25329 -17.730292,-0.08443 -20.516481,1.435309z"/>
   <path stroke="null" id="svg_9" d="m378.639946,242.395512c-2.701759,1.857459 -4.643648,4.728078 -4.728078,7.092117c0,1.941889 3.123909,9.540586 5.319088,12.664494c2.279609,3.377199 7.345407,5.656808 12.580064,5.656808c6.416677,0 10.047166,1.266449 13.002214,4.390358c2.701759,2.955049 9.793876,13.930944 19.250032,30.057067c9.793876,16.548273 12.748924,18.743452 25.413419,18.743452c5.656808,0 8.527426,-0.42215 11.144755,-1.604169c3.714918,-1.688599 6.163387,-5.234658 6.163387,-8.696286c0,-2.026319 -33.012116,-50.066968 -41.792832,-60.874003c-7.092117,-8.611856 -8.274136,-9.034006 -27.861888,-9.034006c-14.437524,0 -16.294983,0.16886 -18.490162,1.604169z"/>
   <path stroke="null" id="svg_10" d="m181.073832,282.330884c-4.559218,1.266449 -8.611856,5.656808 -14.268664,15.703973c-6.247817,10.975895 -6.838827,13.086644 -5.065798,16.801563c2.532899,5.319088 4.305928,5.741237 25.160129,5.741237c17.645862,0 18.743452,-0.08443 22.12065,-1.857459c4.390358,-2.364039 6.923257,-6.501107 10.807035,-17.983582c2.110749,-5.910097 2.870619,-9.456156 2.532899,-11.060325c-0.67544,-2.955049 -4.559218,-6.332247 -8.696286,-7.514267c-3.968208,-1.09759 -28.199608,-0.92873 -32.589966,0.16886z"/>
   <path stroke="null" id="svg_11" d="m248.111223,282.330884c-6.838827,1.941889 -9.625016,5.910097 -13.255504,18.236872c-2.955049,10.384885 -2.955049,13.339934 0.33772,16.210553c1.519739,1.350879 4.137068,2.870619 5.910097,3.292769c4.559218,1.266449 84.345533,1.266449 89.411331,0c2.448469,-0.67544 4.559218,-1.941889 6.332247,-3.968208c2.448469,-2.701759 2.617329,-3.377199 2.195179,-7.260977c-0.50658,-4.812508 -4.812508,-18.152442 -6.923257,-21.276351c-0.67544,-1.09759 -2.870619,-2.870619 -4.896938,-3.883778c-3.546058,-1.941889 -3.883778,-1.941889 -39.850943,-2.110749c-22.5428,-0.08443 -37.402474,0.16886 -39.259933,0.75987z"/>
   <path stroke="null" id="svg_12" d="m357.448025,282.584174c-3.546058,1.266449 -8.020846,5.487948 -8.020846,7.598697c0,2.532899 5.741237,18.996742 7.936417,22.79609c1.435309,2.448469 3.546058,4.474788 5.825667,5.741237c3.377199,1.773029 4.474788,1.857459 22.12065,1.857459c20.009901,0 22.20508,-0.42215 25.244559,-4.812508c2.195179,-3.123909 1.604169,-5.487948 -3.883778,-16.126123c-6.078957,-11.651335 -9.793876,-16.041693 -14.606384,-17.392572c-5.065798,-1.350879 -30.479217,-1.09759 -34.616285,0.33772z"/>
   <path stroke="null" id="svg_13" d="m90.058332,325.474595c-2.279609,3.630488 -4.981368,10.047166 -6.332247,15.197393c-2.617329,10.216026 0.33772,20.685341 8.020846,28.368468c4.896938,4.812508 8.949576,7.092117 15.366253,8.442996c3.461628,0.75987 48.631659,0.92873 181.94657,0.75987l177.302922,-0.25329l4.812508,-2.279609c5.572378,-2.617329 12.411205,-8.949576 15.028533,-14.099804c4.390358,-8.696286 3.968208,-19.672181 -1.266449,-30.057067c-4.559218,-9.202866 -4.052638,-8.865146 -7.936417,-4.474788c-2.026319,2.195179 -5.234658,4.643648 -7.851987,5.825667l-4.474788,2.026319l-178.569372,0l-178.569372,0l-4.812508,-2.364039c-2.617329,-1.266449 -5.910097,-3.630488 -7.260977,-5.150228c-3.377199,-3.883778 -4.052638,-4.137068 -5.403518,-1.941889z"/>
  </g>
 </g>
</svg>