<!-- icon666.com - MILLIONS vector ICONS FREE --><svg version="1.1" id="Layer_1" xmlns="http://www.w3.org/2000/svg" xmlns:xlink="http://www.w3.org/1999/xlink" x="0px" y="0px" viewBox="0 0 512 512" style="enable-background:new 0 0 512 512;" xml:space="preserve"><g><g><path d="M490.49,389.171H350.913V271.926c0-9.25-7.499-16.749-16.749-16.749H177.836c-9.25,0-16.749,7.499-16.749,16.749v50.248 H21.509c-9.25,0-16.749,7.499-16.749,16.749V495.25C4.76,504.5,12.259,512,21.509,512c8.548,0,459.391,0,468.981,0 c9.25,0,16.749-7.499,16.749-16.749v-89.33C507.24,396.671,499.74,389.171,490.49,389.171z M161.087,478.501H38.259V355.673 h122.828V478.501z M317.414,478.501H194.586c0-4.771,0-184.584,0-189.826h122.828 C317.414,297.959,317.414,469.471,317.414,478.501z M473.741,478.501H350.913V422.67h122.828V478.501z"></path></g></g><g><g><path d="M352.311,72.4l-59.993-8.719L265.49,9.32c-6.134-12.426-23.906-12.428-30.039,0l-26.829,54.363l-59.993,8.719 c-13.709,1.99-19.209,18.893-9.282,28.569l43.41,42.314l-10.248,59.75c-2.34,13.652,12.028,24.109,24.303,17.657l53.659-28.211 l53.658,28.211c12.226,6.423,26.649-3.969,24.303-17.657l-10.248-59.749l43.41-42.315C371.513,91.299,366.03,74.391,352.311,72.4z M288.496,125.442c-3.948,3.848-5.75,9.392-4.817,14.825l6,34.978l-31.413-16.515c-4.881-2.565-10.711-2.565-15.589,0 l-31.414,16.516l6-34.979c0.932-5.433-0.869-10.977-4.817-14.825l-25.413-24.772l35.121-5.104 c5.456-0.793,10.17-4.219,12.611-9.162l15.706-31.825l15.705,31.825c2.44,4.943,7.155,8.369,12.611,9.162l35.121,5.104 L288.496,125.442z"></path></g></g></svg>